<?xml version="1.0" standalone="no"?>
<!DOCTYPE svg PUBLIC "-//W3C//DTD SVG 20010904//EN"
 "http://www.w3.org/TR/2001/REC-SVG-20010904/DTD/svg10.dtd">
<svg version="1.0" xmlns="http://www.w3.org/2000/svg"
 width="512.000000pt" height="512.000000pt" viewBox="0 0 512.000000 512.000000"
 preserveAspectRatio="xMidYMid meet">

<g transform="translate(0.000000,512.000000) scale(0.100000,-0.100000)"
fill="#000000" stroke="none">
<path d="M675 5100 c-151 -60 -222 -222 -165 -374 20 -51 43 -80 177 -216 84
-87 168 -165 185 -173 36 -17 82 -7 98 23 27 50 16 67 -154 239 -102 103 -167
177 -171 194 -13 50 2 100 39 134 41 38 72 48 124 38 33 -6 109 -78 642 -610
651 -649 623 -625 728 -625 27 0 64 -11 101 -29 172 -87 390 -87 562 0 37 18
74 29 101 29 105 0 77 -24 728 625 648 647 627 628 708 611 65 -15 115 -102
98 -173 -5 -19 -210 -231 -651 -673 -571 -572 -647 -652 -672 -705 l-28 -60
-5 -1563 -5 -1564 -37 -33 c-43 -40 -74 -50 -125 -40 -46 8 -88 50 -102 101
-6 23 -11 138 -11 285 0 225 -2 247 -18 262 -27 24 -85 22 -108 -4 -18 -20
-19 -40 -19 -298 0 -260 1 -279 21 -322 67 -143 224 -213 364 -160 72 27 119
67 155 132 l30 54 5 548 5 547 430 -431 c237 -237 448 -443 470 -458 122 -85
282 -67 380 41 79 88 97 215 45 318 -15 32 -214 238 -676 700 l-654 655 0 588
0 587 593 0 c692 0 665 -3 758 89 61 61 89 125 89 201 0 102 -66 207 -164 258
l-51 27 -344 3 -344 3 390 392 c366 368 392 396 413 452 57 155 -15 318 -168
375 -64 24 -123 25 -193 3 -51 -15 -82 -44 -578 -537 -311 -310 -520 -511
-515 -496 29 97 33 248 8 343 -71 274 -321 467 -604 467 -103 0 -181 -18 -275
-65 -161 -79 -285 -230 -329 -402 -25 -95 -21 -245 8 -343 5 -15 -199 181
-506 487 -359 358 -526 518 -558 534 -63 31 -160 35 -225 9z m1994 -381 c159
-36 304 -176 346 -333 13 -47 16 -89 13 -158 -3 -82 -8 -103 -40 -168 -60
-125 -141 -200 -273 -250 -79 -30 -215 -33 -293 -6 -135 46 -231 130 -289 253
-33 68 -38 88 -41 171 -5 116 15 198 67 280 66 102 180 186 286 211 54 12 171
13 224 0z m1810 -1007 c75 -37 102 -128 59 -192 -48 -72 -31 -70 -628 -70
l-535 0 140 140 140 140 395 0 c356 0 398 -2 429 -18z m-14 -3009 c40 -83 -12
-183 -100 -193 -74 -8 -55 -24 -587 507 l-508 508 0 195 0 195 590 -590 c325
-325 597 -604 605 -622z"/>
<path d="M2314 4469 c-15 -17 -19 -36 -19 -91 0 -61 3 -72 24 -89 30 -25 76
-24 101 1 26 26 29 143 4 178 -21 30 -83 31 -110 1z"/>
<path d="M2691 4464 c-16 -20 -21 -41 -21 -84 0 -73 25 -110 75 -110 55 0 75
30 75 112 0 55 -4 72 -20 88 -30 30 -83 27 -109 -6z"/>
<path d="M2340 4140 c-71 -71 74 -220 216 -220 114 0 260 112 238 183 -21 69
-83 77 -141 18 -67 -67 -124 -67 -188 -1 -45 46 -91 54 -125 20z"/>
<path d="M1123 4220 c-26 -11 -43 -40 -43 -75 0 -21 27 -54 116 -145 l116
-119 -343 -3 c-339 -3 -345 -3 -392 -27 -65 -32 -133 -110 -152 -174 -33 -112
-10 -204 74 -288 93 -92 66 -89 758 -89 l593 0 0 -588 0 -587 -651 -650 c-570
-569 -655 -657 -680 -710 -52 -107 -35 -223 47 -314 97 -107 258 -125 379 -40
22 15 234 221 470 458 l430 431 5 -547 5 -548 30 -54 c117 -211 415 -195 519
28 21 45 21 59 26 874 6 961 -10 857 130 857 136 0 124 41 130 -433 5 -380 6
-406 24 -426 25 -27 86 -29 110 -2 15 17 16 56 14 444 l-3 425 -30 44 c-20 28
-49 52 -84 71 -49 24 -65 27 -161 27 -96 0 -112 -3 -161 -27 -35 -19 -64 -43
-84 -71 l-30 -44 -5 -831 c-5 -772 -6 -834 -23 -864 -47 -87 -155 -96 -227
-18 l-25 27 -5 1561 -5 1562 -28 60 c-24 52 -78 110 -390 423 -199 200 -374
370 -389 378 -31 16 -35 16 -65 4z m482 -630 l140 -140 -535 0 c-597 0 -580
-2 -628 70 -43 64 -16 155 59 192 31 16 73 18 429 18 l395 0 140 -140z m-252
-2563 c-274 -274 -506 -503 -516 -508 -10 -6 -35 -11 -56 -11 -101 -1 -166 93
-130 189 5 15 276 294 602 621 l592 592 3 -192 2 -192 -497 -499z"/>
<path d="M981 3131 c-21 -21 -49 -107 -78 -241 -14 -69 -18 -129 -18 -315 0
-253 12 -335 76 -527 38 -115 131 -310 161 -337 40 -38 98 -23 116 28 10 27 5
42 -42 138 -116 235 -156 392 -163 644 -6 194 4 296 42 445 31 117 31 135 2
162 -29 27 -71 28 -96 3z"/>
<path d="M1537 3138 c-26 -20 -86 -161 -114 -267 -31 -117 -42 -343 -24 -473
16 -107 75 -288 102 -310 47 -39 119 -8 119 51 0 16 -11 58 -24 93 -37 98 -56
217 -56 350 0 140 18 238 67 363 48 122 51 150 22 181 -25 26 -65 31 -92 12z"/>
<path d="M3491 3126 c-29 -31 -26 -59 22 -181 49 -125 67 -223 67 -363 0 -133
-19 -252 -56 -350 -13 -35 -24 -77 -24 -93 0 -59 72 -90 119 -51 27 22 86 203
102 310 18 130 7 356 -24 473 -28 106 -88 247 -114 267 -27 19 -67 14 -92 -12z"/>
<path d="M4042 3127 c-26 -27 -27 -56 -7 -123 22 -72 44 -196 54 -302 10 -109
24 -132 82 -132 61 0 73 28 66 148 -10 160 -61 376 -98 413 -26 26 -71 24 -97
-4z"/>
<path d="M4097 2348 c-12 -9 -27 -49 -42 -113 -31 -130 -65 -222 -130 -357
-48 -97 -53 -112 -43 -138 18 -52 76 -67 116 -29 54 50 171 335 208 507 17 81
17 83 -3 110 -23 31 -77 41 -106 20z"/>
</g>
</svg>
