<?xml version="1.0" standalone="no"?>
<!DOCTYPE svg PUBLIC "-//W3C//DTD SVG 20010904//EN"
 "http://www.w3.org/TR/2001/REC-SVG-20010904/DTD/svg10.dtd">
<svg version="1.0" xmlns="http://www.w3.org/2000/svg"
 width="512.000000pt" height="512.000000pt" viewBox="0 0 512.000000 512.000000"
 preserveAspectRatio="xMidYMid meet">

<g transform="translate(0.000000,512.000000) scale(0.100000,-0.100000)"
fill="#000000" stroke="none">
<path d="M3624 5104 c-89 -15 -198 -51 -289 -96 -188 -94 -360 -278 -444 -477
-60 -142 -75 -219 -75 -391 0 -135 3 -169 26 -261 90 -357 324 -719 763 -1177
44 -46 92 -90 107 -98 35 -18 111 -18 148 1 31 16 244 242 372 395 392 467
565 887 519 1258 -41 329 -236 608 -531 757 -179 91 -396 123 -596 89z m346
-230 c322 -83 543 -352 567 -689 23 -328 -175 -718 -605 -1191 -53 -59 -108
-120 -122 -136 l-25 -30 -112 124 c-478 529 -661 882 -640 1237 11 188 82 347
216 482 118 118 254 190 412 218 73 13 230 6 309 -15z"/>
<path d="M3620 4647 c-91 -31 -156 -71 -220 -136 -172 -176 -202 -443 -75
-656 98 -163 265 -256 460 -256 151 0 275 51 380 156 104 104 155 229 155 380
0 44 -7 107 -15 140 -47 178 -192 326 -374 379 -83 24 -230 21 -311 -7z m309
-226 c63 -33 126 -103 150 -167 73 -193 -44 -402 -241 -432 -201 -30 -370 111
-371 311 -1 140 79 254 210 303 58 22 196 14 252 -15z"/>
<path d="M813 3476 c-401 -77 -699 -360 -789 -751 -30 -128 -26 -340 9 -475
92 -360 289 -668 724 -1136 118 -127 156 -154 218 -154 65 0 102 28 252 191
440 478 654 841 709 1203 57 367 -96 738 -391 952 -76 55 -240 131 -335 154
-110 27 -298 35 -397 16z m367 -236 c130 -37 224 -93 325 -195 69 -68 101
-109 132 -170 178 -344 97 -725 -252 -1194 -124 -167 -397 -476 -414 -469 -4
2 -39 37 -77 78 -350 382 -530 647 -619 914 -44 132 -59 228 -52 346 7 122 26
193 83 308 97 198 291 346 519 396 94 21 255 15 355 -14z"/>
<path d="M925 3044 c-11 -2 -45 -9 -75 -15 -126 -25 -265 -126 -333 -240 -130
-221 -99 -487 78 -664 67 -67 153 -117 240 -140 76 -19 204 -19 280 0 176 46
326 194 379 374 21 72 21 220 0 292 -53 182 -194 321 -375 373 -59 16 -162 27
-194 20z m180 -248 c116 -52 176 -142 183 -271 5 -106 -20 -176 -88 -245 -139
-138 -382 -115 -489 47 -104 156 -53 369 108 457 93 50 191 54 286 12z"/>
<path d="M3636 2356 c-89 -38 -145 -90 -191 -181 -38 -74 -40 -82 -41 -173 l0
-96 -123 -73 c-142 -83 -167 -103 -175 -144 -7 -38 14 -91 45 -113 48 -33 90
-22 237 65 134 79 137 81 162 64 65 -42 136 -68 201 -73 139 -10 276 61 347
178 43 72 55 119 55 205 -1 97 -30 170 -100 245 -79 86 -141 114 -263 118 -83
2 -103 0 -154 -22z m252 -239 c141 -136 -59 -356 -209 -230 -57 48 -72 111
-43 183 40 99 173 124 252 47z"/>
<path d="M2839 1572 c-8 -4 -89 -50 -178 -102 -172 -100 -191 -119 -191 -184
0 -25 9 -45 29 -68 25 -28 36 -33 73 -33 37 1 69 16 216 103 140 83 176 110
189 137 20 42 11 94 -21 124 -25 23 -89 36 -117 23z"/>
<path d="M2168 1177 c-35 -18 -118 -66 -186 -106 -95 -56 -127 -81 -139 -106
-34 -71 18 -155 94 -155 49 0 378 192 399 232 32 62 10 128 -52 154 -44 19
-43 19 -116 -19z"/>
<path d="M1448 757 l-125 -73 -52 37 c-75 54 -140 74 -241 74 -74 0 -93 -4
-151 -32 -37 -17 -85 -47 -107 -67 -175 -158 -175 -433 -1 -590 212 -191 537
-112 642 157 14 37 20 77 21 142 l1 89 112 66 c126 74 158 100 168 137 8 35
-12 89 -42 113 -47 37 -87 27 -225 -53z m-312 -209 c40 -27 71 -80 79 -134 14
-88 -80 -194 -172 -194 -38 0 -98 23 -126 48 -31 28 -57 88 -57 132 0 44 26
104 57 132 57 52 156 59 219 16z"/>
</g>
</svg>
