<?xml version="1.0" standalone="no"?>
<!DOCTYPE svg PUBLIC "-//W3C//DTD SVG 20010904//EN"
 "http://www.w3.org/TR/2001/REC-SVG-20010904/DTD/svg10.dtd">
<svg version="1.0" xmlns="http://www.w3.org/2000/svg"
 width="512.000000pt" height="512.000000pt" viewBox="0 0 512.000000 512.000000"
 preserveAspectRatio="xMidYMid meet">

<g transform="translate(0.000000,512.000000) scale(0.100000,-0.100000)"
fill="#000000" stroke="none">
<path d="M1945 4855 c-25 -24 -25 -26 -25 -215 0 -189 0 -191 25 -215 23 -24
29 -25 160 -25 l135 0 0 -133 0 -133 -102 -23 c-149 -33 -266 -74 -406 -141
-959 -460 -1362 -1605 -902 -2559 195 -404 498 -706 902 -901 610 -294 1328
-243 1893 135 477 319 781 825 844 1407 43 392 -59 842 -266 1179 l-41 66 112
112 111 111 64 -64 c68 -69 98 -83 134 -65 32 16 246 229 264 263 9 17 12 39
8 55 -7 29 -562 593 -608 617 -16 9 -38 12 -50 9 -12 -4 -82 -66 -154 -138
-166 -165 -167 -167 -66 -269 l68 -68 -98 -98 c-74 -74 -100 -95 -111 -87 -7
6 -45 36 -83 67 -204 165 -462 292 -742 363 -53 14 -104 25 -113 25 -16 0 -18
13 -18 135 l0 135 135 0 c131 0 137 1 160 25 25 24 25 26 25 215 0 189 0 191
-25 215 l-24 25 -591 0 -591 0 -24 -25z m1095 -215 l0 -80 -480 0 -480 0 0 80
0 80 480 0 480 0 0 -80z m-320 -362 l0 -123 -160 0 -160 0 0 123 0 122 160 0
160 0 0 -122z m1720 -363 l225 -225 -56 -56 -56 -56 -226 229 -226 228 52 53
c28 28 54 52 57 52 3 0 106 -101 230 -225z m-1695 75 c421 -49 786 -227 1075
-527 144 -148 224 -260 314 -440 270 -536 243 -1171 -72 -1698 -89 -150 -250
-334 -391 -449 -536 -435 -1279 -518 -1892 -211 -424 213 -744 581 -889 1024
-205 626 -49 1305 409 1774 153 158 290 257 482 353 178 89 422 159 614 177
88 8 265 6 350 -3z m1423 -457 c-56 -57 -105 -99 -109 -95 -4 4 -28 32 -53 62
l-46 54 97 98 98 98 57 -57 58 -58 -102 -102z"/>
<path d="M2415 3754 c-406 -58 -664 -182 -926 -443 -230 -231 -366 -487 -425
-806 -26 -138 -26 -392 0 -530 59 -319 194 -574 425 -806 231 -230 487 -366
806 -425 138 -26 392 -26 530 0 319 59 575 195 806 425 230 231 366 487 425
806 26 138 26 392 0 530 -59 319 -195 575 -425 806 -226 226 -470 358 -777
419 -95 20 -367 34 -439 24z m94 -455 c32 -26 77 -24 106 6 24 23 25 29 25
158 l0 133 73 -8 c296 -31 584 -167 797 -377 211 -208 348 -472 395 -766 23
-139 36 -125 -120 -125 -131 0 -137 -1 -160 -25 -16 -15 -25 -36 -25 -55 0
-19 9 -40 25 -55 23 -24 29 -25 161 -25 l136 0 -7 -62 c-35 -316 -168 -593
-394 -819 -226 -226 -503 -359 -818 -394 l-63 -7 0 136 c0 132 -1 138 -25 161
-32 33 -78 33 -110 0 -24 -23 -25 -29 -25 -160 0 -156 14 -143 -125 -120 -141
22 -259 60 -390 124 -419 205 -705 610 -753 1069 l-8 72 133 0 c129 0 135 1
158 25 33 32 33 78 0 110 -23 24 -29 25 -158 25 l-133 0 8 77 c18 172 80 359
169 515 214 374 610 635 1025 676 l69 7 5 -138 c5 -131 6 -140 29 -158z"/>
<path d="M2505 3095 l-25 -24 0 -471 0 -471 25 -24 c32 -33 78 -33 110 0 l25
24 0 471 0 471 -25 24 c-15 16 -36 25 -55 25 -19 0 -40 -9 -55 -25z"/>
</g>
</svg>
