<?xml version="1.0" standalone="no"?>
<!DOCTYPE svg PUBLIC "-//W3C//DTD SVG 20010904//EN"
 "http://www.w3.org/TR/2001/REC-SVG-20010904/DTD/svg10.dtd">
<svg version="1.0" xmlns="http://www.w3.org/2000/svg"
 width="512.000000pt" height="512.000000pt" viewBox="0 0 512.000000 512.000000"
 preserveAspectRatio="xMidYMid meet">

<g transform="translate(0.000000,512.000000) scale(0.100000,-0.100000)"
fill="#000000" stroke="none">
<path d="M2965 4791 c-148 -40 -849 -257 -883 -273 -73 -35 -138 -102 -179
-186 l-38 -76 -6 -540 c-5 -496 -7 -551 -27 -661 -29 -161 -29 -188 4 -214 34
-27 66 -27 99 2 24 20 29 39 55 201 l30 180 0 478 c0 322 4 494 11 524 13 51
83 135 126 152 16 7 217 68 448 138 448 135 464 138 523 95 84 -60 79 -203
-10 -255 -16 -10 -162 -62 -325 -117 -162 -54 -314 -109 -337 -123 -43 -25
-86 -78 -105 -129 -15 -40 -13 -156 4 -262 26 -163 65 -262 132 -335 29 -33
42 -40 73 -40 30 0 43 6 59 26 28 35 26 63 -5 105 -58 77 -86 153 -103 282
-20 145 -13 194 30 217 11 6 154 56 317 112 163 55 310 107 325 115 53 27 110
88 139 148 33 71 38 162 12 239 -22 65 -100 148 -166 176 -57 24 -154 34 -203
21z"/>
<path d="M3050 4068 c-146 -52 -253 -145 -318 -278 -35 -72 -37 -79 -37 -180
0 -99 2 -109 33 -173 114 -231 395 -303 621 -157 56 36 140 121 175 177 133
216 55 490 -170 595 -92 43 -210 49 -304 16z m236 -162 c169 -79 192 -285 49
-432 -91 -92 -205 -130 -307 -100 -152 44 -220 203 -149 351 27 59 100 138
152 165 82 45 180 51 255 16z"/>
<path d="M2976 3079 c-23 -18 -27 -28 -24 -62 3 -41 5 -43 250 -237 136 -107
262 -209 279 -226 38 -38 50 -105 27 -151 -15 -31 -547 -683 -557 -683 -3 0
-26 54 -50 120 l-44 120 35 42 c20 24 88 106 153 183 150 179 165 213 128 282
-26 46 -372 319 -423 333 -85 23 -176 -34 -199 -123 -16 -65 -14 -220 5 -318
21 -112 59 -221 353 -997 266 -705 269 -715 234 -789 -21 -44 -76 -81 -133
-89 -52 -6 -121 24 -152 66 -10 14 -123 333 -252 709 -177 520 -239 689 -256
703 -41 34 -99 20 -119 -29 -6 -15 -83 -321 -170 -680 -88 -359 -167 -665
-175 -682 -35 -67 -144 -93 -214 -51 -42 26 -72 76 -72 120 0 20 70 459 155
975 85 517 155 954 155 971 0 89 -134 100 -155 12 -3 -13 -75 -448 -161 -968
-172 -1044 -171 -1033 -118 -1130 57 -104 157 -160 288 -160 119 0 213 57 267
162 15 30 186 699 269 1056 7 29 14 51 16 49 2 -2 87 -248 189 -548 131 -383
195 -558 218 -592 18 -27 57 -65 90 -87 137 -92 307 -72 421 50 74 79 106 183
86 276 -6 27 -76 223 -157 436 -80 213 -143 393 -140 400 3 7 142 180 309 383
166 204 312 391 323 415 31 69 28 189 -7 255 -34 64 -37 67 -338 304 -271 214
-283 220 -334 180z m-110 -554 c79 -64 144 -119 144 -123 0 -16 -213 -263
-220 -255 -15 16 -69 173 -79 229 -16 86 -12 264 7 264 2 0 69 -52 148 -115z"/>
</g>
</svg>
