<?xml version="1.0" standalone="no"?>
<!DOCTYPE svg PUBLIC "-//W3C//DTD SVG 20010904//EN"
 "http://www.w3.org/TR/2001/REC-SVG-20010904/DTD/svg10.dtd">
<svg version="1.0" xmlns="http://www.w3.org/2000/svg"
 width="512.000000pt" height="512.000000pt" viewBox="0 0 512.000000 512.000000"
 preserveAspectRatio="xMidYMid meet">

<g transform="translate(0.000000,512.000000) scale(0.100000,-0.100000)"
fill="#000000" stroke="none">
<path d="M2136 4899 c-181 -18 -379 -90 -538 -195 -195 -130 -549 -534 -779
-889 -153 -236 -276 -470 -402 -766 -235 -553 -357 -976 -357 -1246 0 -117
-14 -244 -42 -380 -19 -98 -21 -121 -11 -186 20 -141 98 -262 218 -339 33 -22
144 -82 246 -133 587 -296 1176 -466 1849 -531 211 -21 789 -24 1005 -5 280
24 607 79 855 143 161 41 404 116 475 146 240 102 407 311 451 564 12 72 14
199 11 795 -3 792 0 750 -77 908 -94 192 -266 335 -470 392 -89 25 -330 24
-450 -1 -377 -78 -692 -287 -890 -590 -33 -50 -66 -99 -73 -110 -12 -17 -17
-17 -117 17 -147 50 -214 61 -380 61 -108 1 -165 -4 -225 -18 -175 -40 -329
-109 -455 -202 l-59 -43 -5 52 c-3 29 -8 90 -11 137 -4 47 -20 184 -36 305
-16 121 -32 264 -36 317 l-6 97 309 3 309 3 55 27 c78 38 549 510 580 581 44
99 36 212 -21 303 l-30 47 22 51 c49 111 22 260 -62 345 -43 43 -337 239 -413
275 -122 58 -278 81 -440 65z m249 -223 c28 -7 70 -22 95 -33 65 -29 345 -217
364 -244 9 -13 16 -41 16 -63 0 -38 -7 -47 -197 -238 -212 -213 -226 -222
-298 -198 -45 15 -75 60 -75 113 0 34 8 47 63 105 83 88 97 109 97 153 0 28
-7 45 -31 68 -37 38 -85 41 -135 10 -47 -29 -141 -135 -172 -194 -24 -44 -27
-62 -27 -145 0 -82 4 -102 25 -144 33 -65 94 -126 155 -156 42 -21 64 -25 145
-25 130 0 164 19 336 187 l134 131 10 -28 c20 -53 -1 -81 -238 -318 -169 -169
-236 -230 -262 -237 -34 -10 -520 -15 -520 -5 0 2 11 21 25 41 27 40 31 70 13
108 -25 56 -106 76 -157 39 -95 -70 -151 -259 -137 -463 4 -52 22 -212 41
-356 71 -534 65 -708 -26 -863 -53 -88 -162 -178 -262 -215 -80 -30 -107 -97
-67 -163 24 -40 74 -56 128 -41 124 34 291 167 367 293 91 151 142 220 214
287 190 177 402 261 661 260 246 0 447 -79 658 -257 37 -32 62 -45 83 -45 65
0 108 43 109 108 0 38 -5 47 -47 88 -27 25 -67 60 -90 77 -24 17 -43 36 -43
43 0 23 117 189 184 261 190 204 462 336 749 363 117 11 184 7 262 -17 163
-50 297 -190 352 -368 17 -56 18 -109 18 -770 l0 -710 -23 -65 c-36 -100 -76
-162 -147 -228 -78 -73 -144 -106 -335 -166 -332 -104 -641 -167 -1015 -208
-163 -18 -904 -18 -1075 0 -607 63 -1153 218 -1685 477 -313 153 -367 195
-401 312 -15 51 -14 60 5 151 12 53 26 153 31 222 5 69 14 187 20 262 20 267
148 672 376 1193 207 473 515 931 878 1303 87 89 178 161 266 210 65 36 215
88 291 101 83 13 238 12 294 -3z"/>
</g>
</svg>
