<?xml version="1.0" standalone="no"?>
<!DOCTYPE svg PUBLIC "-//W3C//DTD SVG 20010904//EN"
 "http://www.w3.org/TR/2001/REC-SVG-20010904/DTD/svg10.dtd">
<svg version="1.0" xmlns="http://www.w3.org/2000/svg"
 width="512.000000pt" height="512.000000pt" viewBox="0 0 512.000000 512.000000"
 preserveAspectRatio="xMidYMid meet">

<g transform="translate(0.000000,512.000000) scale(0.100000,-0.100000)"
fill="#000000" stroke="none">
<path d="M2275 4544 c-436 -66 -822 -261 -1130 -569 -311 -310 -506 -700 -569
-1136 -21 -140 -21 -418 0 -558 29 -198 109 -475 153 -525 41 -47 116 -35 141
23 11 29 9 40 -24 126 -47 123 -81 256 -102 397 -24 168 -15 470 19 629 158
729 715 1279 1447 1430 102 21 142 24 350 24 206 0 249 -3 348 -23 332 -67
642 -223 887 -446 l50 -45 -152 -1 c-83 0 -163 -4 -178 -10 -30 -11 -54 -60
-47 -96 2 -13 16 -33 30 -44 23 -19 41 -20 303 -20 l278 0 28 24 28 24 0 287
0 287 -28 24 c-37 31 -81 31 -112 -1 -24 -24 -25 -28 -25 -185 0 -88 -2 -160
-5 -160 -3 0 -41 30 -84 68 -299 258 -660 423 -1040 476 -138 20 -439 20 -566
0z"/>
<path d="M1984 3811 c-23 -10 -72 -48 -110 -84 l-69 -65 -40 35 c-53 47 -97
64 -160 64 -89 0 -153 -39 -194 -119 -41 -81 -23 -184 46 -254 l36 -37 -82
-86 c-45 -47 -91 -105 -101 -128 -26 -57 -26 -158 0 -214 23 -52 97 -133 144
-158 l34 -18 -14 -40 c-22 -63 -18 -163 10 -222 45 -98 151 -165 261 -165 104
0 136 19 300 181 l150 148 232 -231 232 -232 -148 -151 c-161 -164 -181 -196
-181 -300 0 -112 71 -221 171 -264 60 -26 153 -29 215 -7 41 14 42 14 53 -10
19 -43 104 -125 155 -151 37 -19 67 -26 111 -26 89 -1 144 28 242 126 l83 81
32 -31 c50 -47 96 -66 159 -66 190 2 280 208 159 362 l-38 48 59 59 c110 108
139 217 89 332 -23 53 -119 154 -159 167 -19 6 -19 8 -5 47 22 64 18 164 -10
223 -45 98 -151 165 -261 165 -101 0 -138 -21 -283 -164 l-133 -130 -231 232
-232 231 130 133 c106 108 134 142 147 182 65 192 -67 386 -264 386 -37 0 -85
-6 -107 -14 -39 -14 -40 -14 -51 10 -20 45 -105 127 -156 150 -64 30 -161 32
-221 5z m192 -195 c37 -36 44 -50 44 -82 0 -37 -10 -49 -298 -336 -287 -288
-299 -298 -336 -298 -32 0 -46 7 -82 44 -38 38 -44 49 -44 87 l0 43 293 293
293 293 43 0 c38 0 49 -6 87 -44z m-519 -50 l28 -25 -34 -35 -35 -36 -28 27
c-66 63 -1 129 69 69z m933 -103 c39 -35 50 -95 27 -139 -26 -49 -808 -822
-840 -829 -45 -12 -94 3 -121 36 -21 24 -26 41 -26 82 l0 51 413 413 413 413
52 0 c42 0 57 -5 82 -27z m27 -855 c123 -123 223 -228 223 -234 0 -5 -14 -23
-30 -39 l-31 -29 -231 232 -232 231 29 31 c16 16 33 30 39 30 6 0 111 -100
233 -222z m855 -27 c23 -26 28 -41 28 -83 l0 -52 -413 -413 -413 -413 -51 0
c-41 0 -58 5 -82 26 -33 27 -48 76 -36 121 4 19 138 161 398 422 216 216 406
402 422 413 45 29 111 20 147 -21z m144 -403 c52 -46 68 -88 50 -130 -18 -42
-561 -584 -599 -597 -60 -23 -157 56 -157 127 0 35 15 51 298 334 283 283 299
298 334 298 28 0 47 -8 74 -32z m-35 -539 c17 -25 19 -35 11 -53 -16 -35 -48
-38 -83 -9 l-30 26 32 33 c18 19 36 34 40 34 4 0 18 -14 30 -31z"/>
<path d="M4284 3420 c-27 -11 -54 -48 -54 -74 0 -11 18 -66 40 -122 47 -119
84 -263 105 -400 19 -129 19 -399 0 -528 -117 -773 -693 -1378 -1465 -1537
-102 -21 -142 -24 -350 -24 -206 0 -249 3 -350 23 -330 67 -650 229 -890 450
l-55 51 163 1 164 0 30 30 c25 26 29 36 24 63 -3 18 -17 42 -32 54 -25 23 -29
23 -295 23 -282 0 -317 -5 -333 -45 -3 -9 -6 -142 -6 -296 l0 -280 25 -24 c33
-34 83 -34 116 1 23 24 24 32 27 185 l3 160 72 -64 c306 -270 656 -433 1058
-491 135 -20 420 -21 554 -1 671 96 1246 517 1534 1125 133 281 191 543 191
860 0 246 -30 432 -103 645 -43 125 -70 187 -88 202 -21 17 -61 23 -85 13z"/>
</g>
</svg>
