<?xml version="1.0" standalone="no"?>
<!DOCTYPE svg PUBLIC "-//W3C//DTD SVG 20010904//EN"
 "http://www.w3.org/TR/2001/REC-SVG-20010904/DTD/svg10.dtd">
<svg version="1.0" xmlns="http://www.w3.org/2000/svg"
 width="512.000000pt" height="512.000000pt" viewBox="0 0 512.000000 512.000000"
 preserveAspectRatio="xMidYMid meet">

<g transform="translate(0.000000,512.000000) scale(0.100000,-0.100000)"
fill="#000000" stroke="none">
<path d="M2340 4541 c-390 -83 -699 -381 -801 -774 -27 -104 -37 -306 -19
-415 79 -493 486 -862 982 -889 541 -30 1012 351 1098 889 18 108 8 311 -18
413 -104 397 -413 694 -807 776 -119 25 -317 25 -435 0z m400 -165 c166 -35
323 -122 442 -243 86 -86 118 -131 167 -229 70 -139 86 -215 85 -399 0 -148
-2 -166 -28 -245 -100 -300 -308 -507 -601 -596 -81 -25 -105 -28 -245 -28
-140 0 -164 3 -245 28 -507 154 -768 695 -570 1183 105 261 352 468 630 528
80 18 284 18 365 1z"/>
<path d="M2502 4317 c-22 -23 -22 -25 -22 -458 0 -328 3 -440 13 -459 14 -27
538 -340 570 -340 23 0 58 19 74 39 16 21 16 73 0 94 -7 10 -118 79 -247 155
l-235 137 -5 400 c-3 220 -9 408 -14 418 -21 43 -99 51 -134 14z"/>
<path d="M1704 2621 c-56 -14 -122 -51 -163 -91 -40 -39 -91 -126 -91 -155 0
-19 -5 -19 -64 1 -70 24 -236 16 -294 -14 -134 -70 -182 -172 -182 -388 l0
-91 -80 -6 c-94 -7 -151 -30 -199 -78 -50 -49 -71 -103 -71 -179 0 -78 22
-130 76 -182 55 -52 99 -68 192 -68 l79 0 5 -167 c4 -154 6 -173 30 -224 54
-117 154 -180 298 -187 66 -3 98 0 143 16 53 18 59 18 64 3 51 -156 177 -251
333 -251 170 0 308 116 339 284 6 33 11 165 11 293 l0 233 438 -2 437 -3 5
-280 5 -280 34 -63 c38 -70 90 -120 160 -154 39 -19 62 -23 146 -23 105 0 140
11 217 68 36 26 93 111 108 159 l11 37 37 -17 c59 -26 243 -23 303 4 64 30
125 88 157 148 25 48 27 61 32 226 l5 175 85 5 c95 7 127 20 182 77 49 51 68
99 68 175 0 74 -22 129 -71 177 -47 47 -104 70 -192 77 l-76 7 -3 141 c-3 126
-6 146 -28 191 -33 68 -99 129 -166 154 -69 26 -210 29 -280 5 -25 -8 -47 -14
-48 -12 -1 2 -17 33 -34 69 -38 78 -91 130 -171 167 -82 38 -192 37 -278 -2
-73 -33 -144 -103 -176 -174 -20 -44 -22 -65 -25 -294 l-3 -248 -440 0 -439 0
0 198 c0 217 -9 292 -41 358 -30 62 -100 131 -164 160 -59 27 -167 39 -221 25z
m174 -194 c21 -14 47 -42 58 -64 18 -36 19 -73 22 -751 2 -476 -1 -726 -8
-752 -12 -46 -51 -95 -91 -115 -15 -8 -52 -15 -82 -15 -62 0 -108 25 -144 79
l-23 34 0 745 0 745 25 42 c49 85 159 108 243 52z m1548 14 c47 -22 80 -59 95
-110 7 -24 9 -274 7 -762 l-3 -725 -25 -37 c-38 -56 -90 -80 -159 -75 -69 5
-113 32 -141 88 -19 38 -20 62 -20 769 0 493 3 739 11 758 15 40 48 73 94 94
51 23 89 23 141 0z m-2059 -241 c70 -42 68 -26 68 -610 0 -505 -1 -526 -20
-558 -58 -96 -252 -96 -310 0 -19 32 -20 53 -20 558 0 487 1 527 18 558 29 53
70 72 157 72 57 0 83 -5 107 -20z m2612 2 c19 -10 43 -34 53 -53 17 -31 18
-69 18 -560 l0 -526 -23 -34 c-35 -53 -79 -71 -164 -67 -82 4 -117 23 -145 79
-16 31 -18 78 -18 549 0 574 -2 560 69 607 45 30 159 33 210 5z m-3069 -577
l0 -85 -67 0 c-55 0 -71 4 -90 22 -31 29 -31 87 0 115 26 25 45 30 110 32 l47
1 0 -85z m2098 -2 l3 -83 -441 0 -440 0 0 85 0 85 438 -2 437 -3 3 -82z m1358
56 c31 -29 32 -84 2 -116 -18 -19 -32 -23 -85 -23 l-63 0 0 78 c0 43 3 82 8
86 15 16 114 -2 138 -25z"/>
</g>
</svg>
