<?xml version="1.0" standalone="no"?>
<!DOCTYPE svg PUBLIC "-//W3C//DTD SVG 20010904//EN"
 "http://www.w3.org/TR/2001/REC-SVG-20010904/DTD/svg10.dtd">
<svg version="1.0" xmlns="http://www.w3.org/2000/svg"
 width="512.000000pt" height="512.000000pt" viewBox="0 0 512.000000 512.000000"
 preserveAspectRatio="xMidYMid meet">

<g transform="translate(0.000000,512.000000) scale(0.100000,-0.100000)"
fill="#000000" stroke="none">
<path d="M2900 4321 c-71 -22 -205 -133 -251 -208 l-22 -35 -76 76 c-42 41
-96 84 -121 95 -58 26 -132 26 -190 0 -54 -24 -203 -167 -231 -222 -30 -57
-35 -125 -14 -188 16 -50 44 -80 376 -414 l359 -360 -337 -338 -338 -337 -360
359 c-334 332 -364 360 -414 376 -63 21 -131 16 -188 -14 -55 -28 -198 -177
-222 -231 -26 -58 -26 -132 -1 -189 11 -24 54 -78 95 -121 l75 -77 -40 -28
c-56 -39 -156 -147 -182 -198 -25 -49 -29 -132 -9 -192 11 -31 65 -91 232
-260 l219 -221 -41 -39 c-109 -106 -115 -250 -14 -350 101 -101 244 -95 350
14 l39 41 221 -219 c210 -209 223 -220 279 -236 64 -19 117 -15 173 12 42 20
161 129 198 182 l28 41 76 -73 c89 -86 124 -107 197 -114 84 -9 134 15 237
116 49 47 98 103 108 124 30 57 35 125 14 188 -16 50 -44 80 -376 414 l-359
360 337 338 338 337 360 -359 c353 -352 361 -359 419 -376 114 -33 181 -8 302
117 104 105 118 133 118 223 0 88 -14 117 -111 216 l-74 77 34 21 c49 30 162
153 188 203 26 50 30 133 10 193 -11 31 -65 91 -232 260 l-219 221 41 39 c109
106 115 250 14 350 -101 101 -244 95 -350 -14 l-39 -41 -221 219 c-204 203
-224 220 -274 235 -58 17 -91 19 -131 7z m680 -746 c684 -683 631 -608 507
-732 -124 -124 -48 -177 -734 510 -684 683 -633 611 -517 728 76 78 97 91 134
83 16 -3 233 -212 610 -589z m-348 -332 c478 -478 871 -876 874 -886 11 -34
-7 -69 -64 -129 -67 -70 -103 -92 -141 -83 -40 9 -1761 1732 -1761 1763 0 38
25 75 95 140 52 49 72 62 98 62 29 0 111 -79 899 -867z m570 557 c25 -26 29
-36 24 -63 -4 -18 -22 -48 -41 -67 l-35 -35 -57 57 -57 57 29 32 c54 57 93 62
137 19z m-1700 -1687 c478 -478 871 -876 874 -886 11 -34 -7 -70 -67 -133 -65
-67 -105 -90 -141 -80 -13 3 -413 396 -890 873 -787 787 -868 871 -868 900 0
25 13 45 58 94 64 70 106 99 142 99 20 0 207 -182 892 -867z m798 782 l55 -55
-338 -338 -337 -337 -57 58 -58 57 335 335 c184 184 337 335 340 335 3 0 30
-25 60 -55z m-1130 -1130 c684 -683 631 -608 507 -732 -124 -124 -48 -177
-734 510 -684 683 -633 611 -517 728 76 78 97 91 134 83 16 -3 233 -212 610
-589z m-340 -340 l54 -55 -34 -35 c-19 -19 -49 -37 -67 -41 -27 -5 -37 -1 -64
25 -26 27 -30 37 -25 64 6 28 60 97 76 97 3 0 30 -25 60 -55z"/>
</g>
</svg>
